<?xml version="1.0" encoding="utf-8"?>
<svg width="100%" height="100%" viewBox="0 0 768 480" version="1.1" xmlns="http://www.w3.org/2000/svg" style="fill-rule:evenodd;clip-rule:evenodd;stroke-linejoin:round;stroke-miterlimit:2;">
  <path d="M 760.013 470 L 758.013 470 L 758.013 472 L 756.014 472 L 756.014 474 L 12.012 474 L 12.012 472 L 10.013 472 L 10.013 470 L 8.013 470 L 8.013 468 L 6.012 468 L 6.012 412 L 8.012 412 L 8.012 410 L 10.012 410 L 10.012 408 L 12.012 408 L 12.012 406 L 756.014 406 L 756.014 408 L 758.013 408 L 758.013 410 L 760.013 410 L 760.013 412 L 762.013 412 L 762.013 468 L 760.013 468 Z M 12.012 468 L 756.013 468 L 756.013 412 L 12.012 412 Z" style="fill: rgb(255, 255, 255);"/>
</svg>