<?xml version="1.0" encoding="utf-8"?>
<svg width="100%" height="100%" viewBox="0 0 768 480" version="1.1" xmlns="http://www.w3.org/2000/svg" style="fill-rule:evenodd;clip-rule:evenodd;stroke-linejoin:round;stroke-miterlimit:2;">
  <path d="M 756.011 476 L 756.011 472 L 758.011 472 L 758.011 470 L 760.011 470 L 760.011 468 L 762.011 468 L 762.011 412 L 760.011 412 L 760.011 410 L 758.011 410 L 758.011 408 L 756.011 408 L 756.011 404 L 758.011 404 L 758.011 406 L 760.011 406 L 760.011 408 L 762.011 408 L 762.011 410 L 764.011 410 L 764.011 470 L 762.011 470 L 762.011 472 L 760.011 472 L 760.011 474 L 758.011 474 L 758.011 476 Z M 756.01 474 L 756.01 476 L 10.009 476 L 10.009 474 L 8.009 474 L 8.009 472 L 6.009 472 L 6.009 470 L 4.009 470 L 4.009 410 L 6.009 410 L 6.009 408 L 8.009 408 L 8.009 406 L 10.009 406 L 10.009 404 L 756.01 404 L 756.01 406 L 12.009 406 L 12.009 408 L 10.009 408 L 10.009 410 L 8.009 410 L 8.009 412 L 6.009 412 L 6.009 468 L 8.009 468 L 8.009 470 L 10.009 470 L 10.009 472 L 12.009 472 L 12.009 474 Z" style="fill:white;"/>
</svg>