<?xml version="1.0" encoding="utf-8"?>
<svg width="100%" height="100%" viewBox="0 0 768 480" version="1.1" xmlns="http://www.w3.org/2000/svg" style="fill-rule:evenodd;clip-rule:evenodd;stroke-linejoin:round;stroke-miterlimit:2;">
  <path d="M 756.011 396 L 756.011 392 L 758.011 392 L 758.011 390 L 760.011 390 L 760.011 388 L 762.011 388 L 762.011 12 L 760.011 12 L 760.011 10 L 758.011 10 L 758.011 8 L 756.011 8 L 756.011 4 L 758.011 4 L 758.011 6 L 760.011 6 L 760.011 8 L 762.011 8 L 762.011 10 L 764.011 10 L 764.011 390 L 762.011 390 L 762.011 392 L 760.011 392 L 760.011 394 L 758.011 394 L 758.011 396 Z M 756.01 394 L 756.01 396 L 10.009 396 L 10.009 394 L 8.009 394 L 8.009 392 L 6.009 392 L 6.009 390 L 4.009 390 L 4.009 10 L 6.009 10 L 6.009 8 L 8.009 8 L 8.009 6 L 10.009 6 L 10.009 4 L 756.01 4 L 756.01 6 L 12.009 6 L 12.009 8 L 10.009 8 L 10.009 10 L 8.009 10 L 8.009 12 L 6.009 12 L 6.009 388 L 8.009 388 L 8.009 390 L 10.009 390 L 10.009 392 L 12.009 392 L 12.009 394 Z" style="fill:white;"/>
</svg>