<?xml version="1.0" encoding="utf-8"?>
<svg width="100%" height="100%" viewBox="0 0 768 480" version="1.1" xmlns="http://www.w3.org/2000/svg" style="fill-rule:evenodd;clip-rule:evenodd;stroke-linejoin:round;stroke-miterlimit:2;">
  <path d="M 760.013 390 L 758.013 390 L 758.013 392 L 756.014 392 L 756.014 394 L 12.012 394 L 12.012 392 L 10.013 392 L 10.013 390 L 8.013 390 L 8.013 388 L 6.012 388 L 6.012 12 L 8.012 12 L 8.012 10 L 10.012 10 L 10.012 8 L 12.012 8 L 12.012 6 L 756.014 6 L 756.014 8 L 758.013 8 L 758.013 10 L 760.013 10 L 760.013 12 L 762.013 12 L 762.013 388 L 760.013 388 Z M 12.012 388 L 756.013 388 L 756.013 12 L 12.012 12 Z" style="fill: rgb(255, 255, 255);"/>
</svg>