<?xml version="1.0" encoding="utf-8"?>
<svg width="100%" height="100%" viewBox="0 0 720 480" version="1.1" xmlns="http://www.w3.org/2000/svg" style="fill-rule:evenodd;clip-rule:evenodd;stroke-linejoin:round;stroke-miterlimit:2;">
  <path d="M 712.006 470 L 710.006 470 L 710.006 472 L 708.007 472 L 708.007 474 L 12.006 474 L 12.006 472 L 10.007 472 L 10.007 470 L 8.007 470 L 8.007 468 L 6.006 468 L 6.006 412 L 8.006 412 L 8.006 410 L 10.006 410 L 10.006 408 L 12.006 408 L 12.006 406 L 708.007 406 L 708.007 408 L 710.006 408 L 710.006 410 L 712.006 410 L 712.006 412 L 714.006 412 L 714.006 468 L 712.006 468 Z M 12.006 468 L 708.006 468 L 708.006 412 L 12.006 412 Z" style="fill: rgb(255, 255, 255);"/>
</svg>