<?xml version="1.0" encoding="utf-8"?>
<svg width="100%" height="100%" viewBox="0 0 720 480" version="1.1" xmlns="http://www.w3.org/2000/svg" style="fill-rule:evenodd;clip-rule:evenodd;stroke-linejoin:round;stroke-miterlimit:2;">
  <path d="M 8 410 L 8 412 L 6 412 L 6 468 L 8 468 L 8 470 L 10 470 L 10 472 L 12 472 L 12 474 L 707.999 474 L 707.999 472 L 709.999 472 L 709.999 470 L 711.999 470 L 711.999 468 L 713.999 468 L 713.999 412 L 711.999 412 L 711.999 410 L 709.999 410 L 709.999 408 L 707.999 408 L 707.999 406 L 12 406 L 12 408 L 10 408 L 10 410 Z M 10 476 L 10 474 L 8 474 L 8 472 L 6 472 L 6 470 L 4 470 L 4 410 L 6 410 L 6 408 L 8 408 L 8 406 L 10 406 L 10 404 L 709.999 404 L 709.999 406 L 711.999 406 L 711.999 408 L 713.999 408 L 713.999 410 L 715.999 410 L 715.999 470 L 713.999 470 L 713.999 472 L 711.999 472 L 711.999 474 L 709.999 474 L 709.999 476 Z" style="fill:white;"/>
</svg>