<?xml version="1.0" encoding="utf-8"?>
<svg width="100%" height="100%" viewBox="0 0 720 480" version="1.1" xmlns="http://www.w3.org/2000/svg" style="fill-rule:evenodd;clip-rule:evenodd;stroke-linejoin:round;stroke-miterlimit:2;">
  <path d="M 707.999 392 L 709.999 392 L 709.999 390 L 711.999 390 L 711.999 388 L 713.999 388 L 713.999 12 L 711.999 12 L 711.999 10 L 709.999 10 L 709.999 8 L 707.999 8 L 707.999 6 L 12 6 L 12 8 L 10 8 L 10 10 L 8 10 L 8 12 L 6 12 L 6 388 L 8 388 L 8 390 L 10 390 L 10 392 L 12 392 L 12 394 L 707.999 394 Z M 709.999 4 L 709.999 6 L 711.999 6 L 711.999 8 L 713.999 8 L 713.999 10 L 715.999 10 L 715.999 390 L 713.999 390 L 713.999 392 L 711.999 392 L 711.999 394 L 709.999 394 L 709.999 396 L 10 396 L 10 394 L 8 394 L 8 392 L 6 392 L 6 390 L 4 390 L 4 10 L 6 10 L 6 8 L 8 8 L 8 6 L 10 6 L 10 4 Z" style="fill:white;"/>
</svg>