<?xml version="1.0" encoding="utf-8"?>
<svg width="100%" height="100%" viewBox="0 0 720 480" version="1.1" xmlns="http://www.w3.org/2000/svg" style="fill-rule:evenodd;clip-rule:evenodd;stroke-linejoin:round;stroke-miterlimit:2;">
  <path d="M 712.006 390 L 710.006 390 L 710.006 392 L 708.007 392 L 708.007 394 L 12.006 394 L 12.006 392 L 10.007 392 L 10.007 390 L 8.007 390 L 8.007 388 L 6.006 388 L 6.006 12 L 8.006 12 L 8.006 10 L 10.006 10 L 10.006 8 L 12.006 8 L 12.006 6 L 708.007 6 L 708.007 8 L 710.006 8 L 710.006 10 L 712.006 10 L 712.006 12 L 714.006 12 L 714.006 388 L 712.006 388 Z M 12.006 388 L 708.006 388 L 708.006 12 L 12.006 12 Z" style="fill: rgb(255, 255, 255);"/>
</svg>