<?xml version="1.0" encoding="utf-8"?>
<svg width="100%" height="100%" viewBox="0 0 853 480" version="1.1" xmlns="http://www.w3.org/2000/svg" style="fill-rule:evenodd;clip-rule:evenodd;stroke-linejoin:round;stroke-miterlimit:2;">
  <path d="M 844.996 470 L 842.996 470 L 842.996 472 L 840.996 472 L 840.996 474 L 11.998 474 L 11.998 472 L 9.999 472 L 9.999 470 L 7.999 470 L 7.999 468 L 5.998 468 L 5.998 412 L 7.998 412 L 7.998 410 L 9.998 410 L 9.998 408 L 11.998 408 L 11.998 406 L 840.996 406 L 840.996 408 L 842.996 408 L 842.996 410 L 844.996 410 L 844.996 412 L 846.996 412 L 846.996 468 L 844.996 468 Z M 11.998 468 L 840.996 468 L 840.996 412 L 11.998 412 Z" style="fill: rgb(255, 255, 255);"/>
</svg>