<?xml version="1.0" encoding="utf-8"?>
<svg width="100%" height="100%" viewBox="0 0 853 480" version="1.1" xmlns="http://www.w3.org/2000/svg" style="fill-rule:evenodd;clip-rule:evenodd;stroke-linejoin:round;stroke-miterlimit:2;">
  <path d="M 840.997 472 L 842.997 472 L 842.997 470 L 844.997 470 L 844.997 468 L 846.997 468 L 846.997 412 L 844.997 412 L 844.997 410 L 842.997 410 L 842.997 408 L 840.997 408 L 840.997 406 L 11.998 406 L 11.998 408 L 9.998 408 L 9.998 410 L 7.998 410 L 7.998 412 L 5.998 412 L 5.998 468 L 7.998 468 L 7.998 470 L 9.998 470 L 9.998 472 L 11.998 472 L 11.998 474 L 840.997 474 Z M 842.997 404 L 842.997 406 L 844.997 406 L 844.997 408 L 846.997 408 L 846.997 410 L 848.997 410 L 848.997 470 L 846.997 470 L 846.997 472 L 844.997 472 L 844.997 474 L 842.997 474 L 842.997 476 L 9.998 476 L 9.998 474 L 7.998 474 L 7.998 472 L 5.998 472 L 5.998 470 L 3.998 470 L 3.998 410 L 5.998 410 L 5.998 408 L 7.998 408 L 7.998 406 L 9.998 406 L 9.998 404 Z" style="fill:white;"/>
</svg>