<?xml version="1.0" encoding="utf-8"?>
<svg width="100%" height="100%" viewBox="0 0 853 480" version="1.1" xmlns="http://www.w3.org/2000/svg" style="fill-rule:evenodd;clip-rule:evenodd;stroke-linejoin:round;stroke-miterlimit:2;">
  <path d="M 840.997 392 L 842.997 392 L 842.997 390 L 844.997 390 L 844.997 388 L 846.997 388 L 846.997 12 L 844.997 12 L 844.997 10 L 842.997 10 L 842.997 8 L 840.997 8 L 840.997 6 L 11.998 6 L 11.998 8 L 9.998 8 L 9.998 10 L 7.998 10 L 7.998 12 L 5.998 12 L 5.998 388 L 7.998 388 L 7.998 390 L 9.998 390 L 9.998 392 L 11.998 392 L 11.998 394 L 840.997 394 Z M 842.997 4 L 842.997 6 L 844.997 6 L 844.997 8 L 846.997 8 L 846.997 10 L 848.997 10 L 848.997 390 L 846.997 390 L 846.997 392 L 844.997 392 L 844.997 394 L 842.997 394 L 842.997 396 L 9.998 396 L 9.998 394 L 7.998 394 L 7.998 392 L 5.998 392 L 5.998 390 L 3.998 390 L 3.998 10 L 5.998 10 L 5.998 8 L 7.998 8 L 7.998 6 L 9.998 6 L 9.998 4 Z" style="fill:white;"/>
</svg>