<?xml version="1.0" encoding="utf-8"?>
<svg width="100%" height="100%" viewBox="0 0 853 480" version="1.1" xmlns="http://www.w3.org/2000/svg" style="fill-rule:evenodd;clip-rule:evenodd;stroke-linejoin:round;stroke-miterlimit:2;">
  <path d="M 844.996 390 L 842.996 390 L 842.996 392 L 840.996 392 L 840.996 394 L 11.998 394 L 11.998 392 L 9.999 392 L 9.999 390 L 7.999 390 L 7.999 388 L 5.998 388 L 5.998 12 L 7.998 12 L 7.998 10 L 9.998 10 L 9.998 8 L 11.998 8 L 11.998 6 L 840.996 6 L 840.996 8 L 842.996 8 L 842.996 10 L 844.996 10 L 844.996 12 L 846.996 12 L 846.996 388 L 844.996 388 Z M 11.998 388 L 840.996 388 L 840.996 12 L 11.998 12 Z" style="fill: rgb(255, 255, 255);"/>
</svg>