<?xml version="1.0" encoding="utf-8"?>
<svg width="100%" height="100%" viewBox="0 0 1040 480" version="1.1" xmlns="http://www.w3.org/2000/svg" style="fill-rule:evenodd;clip-rule:evenodd;stroke-linejoin:round;stroke-miterlimit:2;">
  <path d="M 1032.018 470 L 1030.018 470 L 1030.018 472 L 1028.018 472 L 1028.018 408 L 1030.018 408 L 1030.018 410 L 1032.018 410 L 1032.018 412 L 1034.018 412 L 1034.018 468 L 1032.018 468 Z M 1028.017 468 L 1028.017 474 L 12.014 474 L 12.014 472 L 10.015 472 L 10.015 470 L 8.015 470 L 8.015 468 L 6.015 468 L 6.015 412 L 8.015 412 L 8.015 410 L 10.015 410 L 10.015 408 L 12.014 408 L 12.014 406 L 1028.017 406 L 1028.017 412 L 12.015 412 L 12.015 468 Z" style="fill: rgb(255, 255, 255);"/>
</svg>