<?xml version="1.0" encoding="utf-8"?>
<svg width="100%" height="100%" viewBox="0 0 1040 480" version="1.1" xmlns="http://www.w3.org/2000/svg" style="fill-rule:evenodd;clip-rule:evenodd;stroke-linejoin:round;stroke-miterlimit:2;">
  <path d="M 1028.017 472 L 1030.017 472 L 1030.017 470 L 1032.017 470 L 1032.017 468 L 1034.017 468 L 1034.017 412 L 1032.017 412 L 1032.017 410 L 1030.017 410 L 1030.017 408 L 1028.017 408 L 1028.017 406 L 12.015 406 L 12.015 408 L 10.015 408 L 10.015 410 L 8.015 410 L 8.015 412 L 6.015 412 L 6.015 468 L 8.015 468 L 8.015 470 L 10.015 470 L 10.015 472 L 12.015 472 L 12.015 474 L 1028.017 474 Z M 1030.017 404 L 1030.017 406 L 1032.017 406 L 1032.017 408 L 1034.017 408 L 1034.017 410 L 1036.017 410 L 1036.017 470 L 1034.017 470 L 1034.017 472 L 1032.017 472 L 1032.017 474 L 1030.017 474 L 1030.017 476 L 10.015 476 L 10.015 474 L 8.015 474 L 8.015 472 L 6.015 472 L 6.015 470 L 4.015 470 L 4.015 410 L 6.015 410 L 6.015 408 L 8.015 408 L 8.015 406 L 10.015 406 L 10.015 404 Z" style="fill:white;"/>
</svg>