<?xml version="1.0" encoding="utf-8"?>
<svg width="100%" height="100%" viewBox="0 0 1040 480" version="1.1" xmlns="http://www.w3.org/2000/svg" style="fill-rule:evenodd;clip-rule:evenodd;stroke-linejoin:round;stroke-miterlimit:2;">
  <path d="M 1032.018 390 L 1030.018 390 L 1030.018 392 L 1028.018 392 L 1028.018 8 L 1030.018 8 L 1030.018 10 L 1032.018 10 L 1032.018 12 L 1034.018 12 L 1034.018 388 L 1032.018 388 Z M 1028.017 388 L 1028.017 394 L 12.014 394 L 12.014 392 L 10.015 392 L 10.015 390 L 8.015 390 L 8.015 388 L 6.015 388 L 6.015 12 L 8.015 12 L 8.015 10 L 10.015 10 L 10.015 8 L 12.014 8 L 12.014 6 L 1028.017 6 L 1028.017 12 L 12.015 12 L 12.015 388 Z" style="fill: rgb(255, 255, 255);"/>
</svg>