<?xml version="1.0" encoding="utf-8"?>
<svg width="100%" height="100%" viewBox="0 0 1040 480" version="1.1" xmlns="http://www.w3.org/2000/svg" style="fill-rule:evenodd;clip-rule:evenodd;stroke-linejoin:round;stroke-miterlimit:2;">
  <path d="M 1028.017 392 L 1030.017 392 L 1030.017 390 L 1032.017 390 L 1032.017 388 L 1034.017 388 L 1034.017 12 L 1032.017 12 L 1032.017 10 L 1030.017 10 L 1030.017 8 L 1028.017 8 L 1028.017 6 L 12.015 6 L 12.015 8 L 10.015 8 L 10.015 10 L 8.015 10 L 8.015 12 L 6.015 12 L 6.015 388 L 8.015 388 L 8.015 390 L 10.015 390 L 10.015 392 L 12.015 392 L 12.015 394 L 1028.017 394 Z M 1030.017 4 L 1030.017 6 L 1032.017 6 L 1032.017 8 L 1034.017 8 L 1034.017 10 L 1036.017 10 L 1036.017 390 L 1034.017 390 L 1034.017 392 L 1032.017 392 L 1032.017 394 L 1030.017 394 L 1030.017 396 L 10.015 396 L 10.015 394 L 8.015 394 L 8.015 392 L 6.015 392 L 6.015 390 L 4.015 390 L 4.015 10 L 6.015 10 L 6.015 8 L 8.015 8 L 8.015 6 L 10.015 6 L 10.015 4 Z" style="fill:white;"/>
</svg>