<?xml version="1.0" encoding="utf-8"?>
<svg width="100%" height="100%" viewBox="0 0 640 480" version="1.1" xmlns="http://www.w3.org/2000/svg" style="fill-rule:evenodd;clip-rule:evenodd;stroke-linejoin:round;stroke-miterlimit:2;">
  <path d="M 629.999 472 L 627.999 472 L 627.999 474 L 12 474 L 12 472 L 10 472 L 10 470 L 8 470 L 8 468 L 6 468 L 6 412 L 8 412 L 8 410 L 10 410 L 10 408 L 12 408 L 12 406 L 627.999 406 L 627.999 408 L 629.999 408 L 629.999 410 L 631.999 410 L 631.999 412 L 633.999 412 L 633.999 468 L 631.999 468 L 631.999 470 L 629.999 470 Z M 12 468 L 627.999 468 L 627.999 412 L 12 412 Z" style="fill: rgb(255, 255, 255);"/>
</svg>