<?xml version="1.0" encoding="utf-8"?>
<svg width="100%" height="100%" viewBox="0 0 640 480" version="1.1" xmlns="http://www.w3.org/2000/svg" style="fill-rule:evenodd;clip-rule:evenodd;stroke-linejoin:round;stroke-miterlimit:2;">
  <path d="M 10 470 L 10 472 L 12 472 L 12 474 L 627.999 474 L 627.999 472 L 629.999 472 L 629.999 470 L 631.999 470 L 631.999 468 L 633.999 468 L 633.999 412 L 631.999 412 L 631.999 410 L 629.999 410 L 629.999 408 L 627.999 408 L 627.999 406 L 12 406 L 12 408 L 10 408 L 10 410 L 8 410 L 8 412 L 6 412 L 6 468 L 8 468 L 8 470 Z M 635.999 470 L 633.999 470 L 633.999 472 L 631.999 472 L 631.999 474 L 629.999 474 L 629.999 476 L 10 476 L 10 474 L 8 474 L 8 472 L 6 472 L 6 470 L 4 470 L 4 410 L 6 410 L 6 408 L 8 408 L 8 406 L 10 406 L 10 404 L 629.999 404 L 629.999 406 L 631.999 406 L 631.999 408 L 633.999 408 L 633.999 410 L 635.999 410 Z" style="fill:white;"/>
</svg>