<?xml version="1.0" encoding="utf-8"?>
<svg width="100%" height="100%" viewBox="0 0 640 480" version="1.1" xmlns="http://www.w3.org/2000/svg" style="fill-rule:evenodd;clip-rule:evenodd;stroke-linejoin:round;stroke-miterlimit:2;">
  <path d="M 10 390 L 10 392 L 12 392 L 12 394 L 627.999 394 L 627.999 392 L 629.999 392 L 629.999 390 L 631.999 390 L 631.999 388 L 633.999 388 L 633.999 12 L 631.999 12 L 631.999 10 L 629.999 10 L 629.999 8 L 627.999 8 L 627.999 6 L 12 6 L 12 8 L 10 8 L 10 10 L 8 10 L 8 12 L 6 12 L 6 388 L 8 388 L 8 390 Z M 635.999 390 L 633.999 390 L 633.999 392 L 631.999 392 L 631.999 394 L 629.999 394 L 629.999 396 L 10 396 L 10 394 L 8 394 L 8 392 L 6 392 L 6 390 L 4 390 L 4 10 L 6 10 L 6 8 L 8 8 L 8 6 L 10 6 L 10 4 L 629.999 4 L 629.999 6 L 631.999 6 L 631.999 8 L 633.999 8 L 633.999 10 L 635.999 10 Z" style="fill:white;"/>
</svg>