<?xml version="1.0" encoding="utf-8"?>
<svg width="100%" height="100%" viewBox="0 0 640 480" version="1.1" xmlns="http://www.w3.org/2000/svg" style="fill-rule:evenodd;clip-rule:evenodd;stroke-linejoin:round;stroke-miterlimit:2;">
  <path d="M 629.999 392 L 627.999 392 L 627.999 394 L 12 394 L 12 392 L 10 392 L 10 390 L 8 390 L 8 388 L 6 388 L 6 12 L 8 12 L 8 10 L 10 10 L 10 8 L 12 8 L 12 6 L 627.999 6 L 627.999 8 L 629.999 8 L 629.999 10 L 631.999 10 L 631.999 12 L 633.999 12 L 633.999 388 L 631.999 388 L 631.999 390 L 629.999 390 Z M 12 388 L 627.999 388 L 627.999 12 L 12 12 Z" style="fill: rgb(255, 255, 255);"/>
</svg>