<?xml version="1.0" encoding="utf-8"?>
<svg width="100%" height="100%" viewBox="0 0 640 480" version="1.1" xmlns="http://www.w3.org/2000/svg" style="fill-rule:evenodd;clip-rule:evenodd;stroke-linejoin:round;stroke-miterlimit:2;">
  <path d="M 74.999 36 L 562.998 36 L 562.998 38 L 75 38 L 75 76 L 562.998 76 L 562.998 78 L 74.999 78 L 74.999 76 L 73 76 L 73 74 L 71 74 L 71 40 L 73 40 L 73 38 L 74.999 38 Z M 562.999 36 L 567.999 36 L 567.999 38 L 569.999 38 L 569.999 40 L 570.999 40 L 570.999 74 L 569.999 74 L 569.999 76 L 567.999 76 L 567.999 78 L 562.999 78 L 562.999 76 L 566.999 76 L 566.999 38 L 562.999 38 Z" style="fill: rgb(255, 255, 255);"/>
</svg>