<?xml version="1.0" encoding="utf-8"?>
<svg width="100%" height="100%" viewBox="0 0 480 480" version="1.1" xmlns="http://www.w3.org/2000/svg" style="fill-rule:evenodd;clip-rule:evenodd;stroke-linejoin:round;stroke-miterlimit:2;">
  <path d="M 472.001 470 L 470.001 470 L 470.001 472 L 468.001 472 L 468.001 474 L 12.001 474 L 12.001 472 L 10.002 472 L 10.002 470 L 8.002 470 L 8.002 468 L 6.001 468 L 6.001 412 L 8.001 412 L 8.001 410 L 10.001 410 L 10.001 408 L 12.001 408 L 12.001 406 L 468.001 406 L 468.001 408 L 470.001 408 L 470.001 410 L 472.001 410 L 472.001 412 L 474 412 L 474 468 L 472.001 468 Z M 12.001 468 L 468 468 L 468 412 L 12.001 412 Z" style="fill: rgb(255, 255, 255);"/>
</svg>