<?xml version="1.0" encoding="utf-8"?>
<svg width="100%" height="100%" viewBox="0 0 480 480" version="1.1" xmlns="http://www.w3.org/2000/svg" style="fill-rule:evenodd;clip-rule:evenodd;stroke-linejoin:round;stroke-miterlimit:2;">
  <path d="M 472.001 390 L 470.001 390 L 470.001 392 L 468.001 392 L 468.001 394 L 12.001 394 L 12.001 392 L 10.002 392 L 10.002 390 L 8.002 390 L 8.002 388 L 6.001 388 L 6.001 12 L 8.001 12 L 8.001 10 L 10.001 10 L 10.001 8 L 12.001 8 L 12.001 6 L 468.001 6 L 468.001 8 L 470.001 8 L 470.001 10 L 472.001 10 L 472.001 12 L 474 12 L 474 388 L 472.001 388 Z M 12.001 388 L 468 388 L 468 12 L 12.001 12 Z" style="fill: rgb(255, 255, 255);"/>
</svg>