<?xml version="1.0" encoding="utf-8"?>
<svg width="100%" height="100%" viewBox="0 0 480 480" version="1.1" xmlns="http://www.w3.org/2000/svg" style="fill-rule:evenodd;clip-rule:evenodd;stroke-linejoin:round;stroke-miterlimit:2;">
  <path d="M 467.999 392 L 469.999 392 L 469.999 390 L 471.999 390 L 471.999 388 L 473.999 388 L 473.999 12 L 471.999 12 L 471.999 10 L 469.999 10 L 469.999 8 L 467.999 8 L 467.999 6 L 12 6 L 12 8 L 10 8 L 10 10 L 8 10 L 8 12 L 6 12 L 6 388 L 8 388 L 8 390 L 10 390 L 10 392 L 12 392 L 12 394 L 467.999 394 Z M 469.999 4 L 469.999 6 L 471.999 6 L 471.999 8 L 473.999 8 L 473.999 10 L 475.999 10 L 475.999 390 L 473.999 390 L 473.999 392 L 471.999 392 L 471.999 394 L 469.999 394 L 469.999 396 L 10 396 L 10 394 L 8 394 L 8 392 L 6 392 L 6 390 L 4 390 L 4 10 L 6 10 L 6 8 L 8 8 L 8 6 L 10 6 L 10 4 Z" style="fill:white;"/>
</svg>